<svg width="19" height="19" viewBox="0 0 19 19" fill="none" xmlns="http://www.w3.org/2000/svg">
<path d="M14.8358 18.483L10.4632 12.4343C9.93814 12.7317 9.35573 12.9403 8.716 13.0601C8.07628 13.1799 7.41525 13.185 6.7329 13.0752C5.04255 12.8033 3.70624 11.988 2.72398 10.6292C1.74119 9.26969 1.38574 7.74475 1.65761 6.0544C1.92948 4.36405 2.74518 3.02748 4.1047 2.04469C5.4635 1.06243 6.98807 0.707235 8.67842 0.979109C10.3688 1.25098 11.7054 2.06637 12.6883 3.42527C13.6704 4.78468 14.0256 6.30957 13.7537 7.99992C13.644 8.68227 13.4319 9.30838 13.1175 9.87827C12.8031 10.4482 12.4224 10.9358 11.9754 11.3412L16.3675 17.4169C16.5106 17.6149 16.5623 17.838 16.5224 18.0861C16.4824 18.3342 16.3545 18.5364 16.1385 18.6925C15.9404 18.8357 15.7096 18.886 15.446 18.8436C15.1823 18.8012 14.9789 18.681 14.8358 18.483ZM7.03221 11.2143C8.1953 11.4013 9.24953 11.1535 10.1949 10.4706C11.1397 9.78703 11.7057 8.8637 11.8928 7.70061C12.0798 6.53753 11.832 5.4833 11.1491 4.53793C10.4655 3.59308 9.5422 3.02712 8.37911 2.84005C7.21603 2.65298 6.1618 2.90087 5.21643 3.58372C4.27158 4.26729 3.70562 5.19062 3.51855 6.35371C3.33148 7.5168 3.57937 8.57103 4.26222 9.5164C4.9458 10.4612 5.86913 11.0272 7.03221 11.2143Z" fill="#111111"/>
</svg>
