<svg width="25" height="26" viewBox="0 0 25 26" fill="none" xmlns="http://www.w3.org/2000/svg">
<path d="M5.02534 0.608765C2.5536 0.608765 0.563354 2.599 0.563354 5.07074V20.5834C0.563354 23.0551 2.5536 25.0454 5.02534 25.0454H13.4331V15.4922H10.9069V12.0527H13.4331V9.11424C13.4331 6.80559 14.9256 4.68586 18.3639 4.68586C19.756 4.68586 20.7855 4.81951 20.7855 4.81951L20.7045 8.0314C20.7045 8.0314 19.6546 8.02148 18.509 8.02148C17.2691 8.02148 17.0703 8.59276 17.0703 9.54115V12.0528H20.803L20.6404 15.4922H17.0703V25.0454H20.538C23.0098 25.0454 25 23.0552 25 20.5834V5.07076C25 2.59903 23.0098 0.608789 20.538 0.608789H5.02531L5.02534 0.608765Z" fill="white"/>
</svg>
