<svg width="25" height="25" viewBox="0 0 25 25" fill="none" xmlns="http://www.w3.org/2000/svg">
<path d="M12.7817 9.48095C12.2063 9.48117 11.6439 9.65199 11.1655 9.97182C10.6872 10.2916 10.3145 10.7461 10.0944 11.2778C9.87439 11.8094 9.81693 12.3944 9.92932 12.9587C10.0417 13.523 10.3189 14.0414 10.7258 14.4481C11.1328 14.8549 11.6512 15.1319 12.2156 15.2441C12.7799 15.3563 13.3649 15.2986 13.8964 15.0784C14.428 14.8581 14.8823 14.4852 15.202 14.0068C15.5216 13.5283 15.6923 12.9658 15.6923 12.3904C15.6917 11.6188 15.3848 10.8789 14.8391 10.3334C14.2933 9.78783 13.5533 9.48124 12.7817 9.48095ZM19.5841 7.24456C19.436 6.8692 19.2123 6.52828 18.927 6.24294C18.6417 5.9576 18.3007 5.73393 17.9254 5.58582C16.7799 5.13363 14.0526 5.23509 12.7817 5.23509C11.5108 5.23509 8.78618 5.12981 7.63744 5.58582C7.26207 5.73393 6.92115 5.9576 6.63581 6.24294C6.35047 6.52828 6.12681 6.8692 5.97869 7.24456C5.52705 8.39003 5.62796 11.1201 5.62796 12.3899C5.62796 13.6597 5.52705 16.3865 5.98087 17.5358C6.12899 17.9111 6.35265 18.2521 6.63799 18.5374C6.92333 18.8227 7.26425 19.0464 7.63962 19.1945C8.78508 19.6467 11.5124 19.5452 12.7839 19.5452C14.0553 19.5452 16.7788 19.6505 17.9276 19.1945C18.3029 19.0464 18.6438 18.8227 18.9292 18.5374C19.2145 18.2521 19.4382 17.9111 19.5863 17.5358C20.0418 16.3903 19.937 13.6603 19.937 12.3904C19.937 11.1206 20.0418 8.39439 19.5863 7.24511L19.5841 7.24456ZM12.7817 16.8632C11.897 16.8632 11.0323 16.6009 10.2967 16.1094C9.56119 15.6179 8.9879 14.9194 8.64937 14.1021C8.31083 13.2848 8.22226 12.3855 8.39484 11.5178C8.56742 10.6502 8.99341 9.85324 9.61894 9.22771C10.2445 8.60218 11.0414 8.17619 11.9091 8.0036C12.7767 7.83102 13.676 7.9196 14.4933 8.25813C15.3106 8.59667 16.0092 9.16995 16.5007 9.9055C16.9921 10.641 17.2545 11.5058 17.2545 12.3904C17.2552 12.978 17.14 13.56 16.9154 14.1029C16.6909 14.6459 16.3615 15.1393 15.946 15.5548C15.5305 15.9703 15.0372 16.2997 14.4942 16.5242C13.9512 16.7487 13.3693 16.8639 12.7817 16.8632ZM17.4388 8.77404C17.2323 8.77414 17.0304 8.713 16.8586 8.59835C16.6869 8.4837 16.553 8.32069 16.4739 8.12993C16.3948 7.93917 16.374 7.72924 16.4143 7.52668C16.4545 7.32413 16.5539 7.13805 16.6999 6.99199C16.8458 6.84593 17.0319 6.74644 17.2344 6.70611C17.4369 6.66578 17.6469 6.68643 17.8377 6.76543C18.0285 6.84443 18.1916 6.97825 18.3063 7.14995C18.421 7.32164 18.4823 7.52351 18.4823 7.73002C18.4829 7.86716 18.4564 8.00306 18.4043 8.12993C18.3522 8.2568 18.2756 8.37214 18.1789 8.46934C18.0821 8.56654 17.9672 8.64368 17.8405 8.69634C17.7139 8.749 17.5781 8.77615 17.441 8.77622L17.4388 8.77404ZM22.3818 0.172119H3.18157C2.48717 0.172119 1.82122 0.447966 1.33021 0.938976C0.839201 1.42999 0.563354 2.09594 0.563354 2.79033L0.563354 21.9905C0.563354 22.6849 0.839201 23.3509 1.33021 23.8419C1.82122 24.3329 2.48717 24.6088 3.18157 24.6088H22.3818C23.0762 24.6088 23.7421 24.3329 24.2331 23.8419C24.7241 23.3509 25 22.6849 25 21.9905V2.79033C25 2.09594 24.7241 1.42999 24.2331 0.938976C23.7421 0.447966 23.0762 0.172119 22.3818 0.172119ZM21.448 15.9905C21.3776 17.3885 21.0585 18.6272 20.0379 19.6451C19.0174 20.6629 17.7797 20.9885 16.3834 21.0551C14.9428 21.1364 10.6238 21.1364 9.18327 21.0551C7.78525 20.9847 6.55088 20.6651 5.52868 19.6451C4.50649 18.6251 4.18521 17.3858 4.11867 15.9905C4.03739 14.5494 4.03739 10.2299 4.11867 8.7904C4.18903 7.39238 4.50431 6.15364 5.52868 5.13581C6.55306 4.11798 7.79071 3.79616 9.18327 3.72961C10.6238 3.64834 14.9428 3.64834 16.3834 3.72961C17.7814 3.79998 19.0196 4.11962 20.0379 5.13963C21.0563 6.15964 21.3814 7.39893 21.448 8.79694C21.5292 10.2326 21.5292 14.5483 21.448 15.9905Z" fill="white"/>
</svg>
