<svg width="77" height="37" viewBox="0 0 77 37" fill="none" xmlns="http://www.w3.org/2000/svg">
<path d="M10.591 26C10.4272 26 10.3452 25.9181 10.3452 25.7542V11.3657H4.96072C4.81177 11.3657 4.7373 11.2838 4.7373 11.12V9.82409C4.7373 9.67514 4.81177 9.60067 4.96072 9.60067H17.6065C17.7555 9.60067 17.83 9.67514 17.83 9.82409V11.12C17.83 11.2838 17.7555 11.3657 17.6065 11.3657H12.222V25.7542C12.222 25.9181 12.1401 26 11.9762 26H10.591ZM20.8315 26C20.6677 26 20.5858 25.9181 20.5858 25.7542V9.82409C20.5858 9.67514 20.6677 9.60067 20.8315 9.60067H22.2167C22.3806 9.60067 22.4625 9.67514 22.4625 9.82409V16.6609H31.5782V9.82409C31.5782 9.67514 31.6527 9.60067 31.8016 9.60067H33.2092C33.3582 9.60067 33.4326 9.67514 33.4326 9.82409V25.7542C33.4326 25.9181 33.3582 26 33.2092 26H31.8016C31.6527 26 31.5782 25.9181 31.5782 25.7542V18.4259H22.4625V25.7542C22.4625 25.9181 22.3806 26 22.2167 26H20.8315Z" fill="white"/>
<path d="M44.9353 13.8234H71.1243M44.9353 23.1766H71.1243M44 18.5C44 20.3424 44.3629 22.1668 45.068 23.869C45.773 25.5711 46.8064 27.1178 48.1092 28.4206C49.412 29.7233 50.9586 30.7568 52.6608 31.4618C54.363 32.1669 56.1874 32.5298 58.0298 32.5298C59.8722 32.5298 61.6966 32.1669 63.3988 31.4618C65.1009 30.7568 66.6476 29.7233 67.9503 28.4206C69.2531 27.1178 70.2866 25.5711 70.9916 23.869C71.6967 22.1668 72.0596 20.3424 72.0596 18.5C72.0596 14.7791 70.5814 11.2105 67.9503 8.57944C65.3192 5.94835 61.7507 4.47021 58.0298 4.47021C54.3089 4.47021 50.7403 5.94835 48.1092 8.57944C45.4781 11.2105 44 14.7791 44 18.5Z" stroke="white" stroke-width="2" stroke-linecap="round" stroke-linejoin="round"/>
<path d="M57.2502 4.47021C54.6241 8.67855 53.2318 13.5395 53.2318 18.5C53.2318 23.4605 54.6241 28.3215 57.2502 32.5298M58.8091 4.47021C61.4353 8.67855 62.8275 13.5395 62.8275 18.5C62.8275 23.4605 61.4353 28.3215 58.8091 32.5298" stroke="white" stroke-width="2" stroke-linecap="round" stroke-linejoin="round"/>
</svg>
