<svg width="25" height="25" viewBox="0 0 25 25" fill="none" xmlns="http://www.w3.org/2000/svg">
<mask id="path-1-inside-1_48_605" fill="white">
<path fill-rule="evenodd" clip-rule="evenodd" d="M3.20515 0.0454102C1.74613 0.0454102 0.563354 1.22818 0.563354 2.68721V21.8403C0.563354 23.2993 1.74613 24.4821 3.20515 24.4821H22.3582C23.8172 24.4821 25 23.2993 25 21.8403V2.68721C25 1.22818 23.8172 0.0454102 22.3582 0.0454102H3.20515ZM21.326 11.0563C21.326 7.2327 17.4928 4.12259 12.7817 4.12259C8.07167 4.12259 4.23743 7.2327 4.23743 11.0563C4.23743 14.4836 7.27705 17.3555 11.3836 17.897C11.6613 17.9568 12.0394 18.0807 12.1355 18.3189C12.222 18.5346 12.1921 18.8732 12.1633 19.0911L12.0415 19.8227L12.0383 19.8419C11.9978 20.0726 11.8952 20.6568 12.7817 20.283C13.6938 19.8985 17.7021 17.3854 19.4943 15.322C20.7332 13.9645 21.326 12.5868 21.326 11.0563ZM7.97234 12.3315H9.60109C9.62297 12.3316 9.64461 12.3361 9.66477 12.3446C9.68493 12.3531 9.70322 12.3655 9.71859 12.381C9.73397 12.3966 9.74612 12.4151 9.75436 12.4353C9.76261 12.4556 9.76678 12.4773 9.76664 12.4992V13.0973C9.76664 13.1891 9.69294 13.2639 9.60109 13.2639H7.20656C7.16359 13.2642 7.12219 13.2478 7.09121 13.218L7.08908 13.2158L7.08694 13.2137V13.2126C7.0581 13.1838 7.03995 13.1421 7.03995 13.0983V9.37518C7.03995 9.3533 7.04426 9.33163 7.05263 9.31142C7.061 9.2912 7.07328 9.27284 7.08875 9.25737C7.10422 9.24189 7.12259 9.22962 7.1428 9.22125C7.16302 9.21287 7.18468 9.20857 7.20656 9.20857H7.8068C7.8508 9.20885 7.8929 9.22653 7.92392 9.25774C7.95494 9.28896 7.97234 9.33117 7.97234 9.37518V12.3315ZM10.3281 9.25737C10.3593 9.22612 10.4017 9.20857 10.4459 9.20857H11.0461C11.0901 9.20885 11.1322 9.22653 11.1633 9.25774C11.1943 9.28896 11.2117 9.33117 11.2117 9.37518V13.0983C11.2117 13.1891 11.138 13.2639 11.0461 13.2639H10.4459C10.3541 13.2639 10.2793 13.1902 10.2793 13.0983V9.37518C10.2793 9.33099 10.2968 9.28861 10.3281 9.25737ZM14.4539 9.25737C14.4852 9.22612 14.5275 9.20857 14.5717 9.20857H15.1709C15.2151 9.20857 15.2575 9.22612 15.2887 9.25737C15.3199 9.28861 15.3375 9.33099 15.3375 9.37518V13.0994C15.3375 13.1902 15.2627 13.265 15.1698 13.265H14.5717C14.5573 13.2647 14.5429 13.2625 14.529 13.2585H14.5258C14.5222 13.2576 14.5186 13.2565 14.5151 13.2553L14.5098 13.2532L14.5023 13.25C14.4994 13.2488 14.4965 13.2473 14.4938 13.2457L14.4895 13.2436L14.4788 13.2372L14.4777 13.2361C14.4615 13.2252 14.4474 13.2114 14.4361 13.1955L12.7272 10.8886V13.0994C12.7272 13.1902 12.6525 13.265 12.5595 13.265H11.9614C11.8696 13.265 11.7948 13.1913 11.7948 13.0994V9.37625C11.7951 9.33224 11.8128 9.29014 11.844 9.25912C11.8752 9.22811 11.9174 9.2107 11.9614 9.2107H12.5745L12.5766 9.21177H12.5809L12.5841 9.21284H12.5905L12.6001 9.21497L12.6033 9.21604H12.6055C12.6091 9.21691 12.6127 9.21798 12.6162 9.21925L12.6204 9.22138L12.6311 9.22565L12.6343 9.22779H12.6364L12.645 9.23313C12.6469 9.23402 12.6487 9.23509 12.6503 9.23633L12.6535 9.23847L12.6589 9.24274H12.6599C12.6641 9.24564 12.668 9.24885 12.6717 9.25235L12.6749 9.25556C12.6786 9.25894 12.6822 9.2625 12.6856 9.26624V9.26731C12.6905 9.27237 12.6951 9.27772 12.6995 9.28333L14.4051 11.586V9.37518C14.4051 9.33099 14.4227 9.28861 14.4539 9.25737ZM18.6463 9.37625V9.97435H18.6452C18.6452 10.0662 18.5715 10.141 18.4797 10.141H16.8509V10.77H18.4797C18.5015 10.7702 18.5232 10.7746 18.5433 10.7831C18.5635 10.7916 18.5818 10.804 18.5972 10.8196C18.6125 10.8352 18.6247 10.8536 18.6329 10.8739C18.6412 10.8941 18.6453 10.9158 18.6452 10.9377V11.5358C18.6452 11.6277 18.5715 11.7024 18.4797 11.7024H16.8509V12.3315H18.4807C18.5026 12.3316 18.5242 12.3361 18.5444 12.3446C18.5646 12.3531 18.5828 12.3655 18.5982 12.381C18.6136 12.3966 18.6257 12.4151 18.634 12.4353C18.6422 12.4556 18.6464 12.4773 18.6463 12.4992V13.0973C18.6463 13.1891 18.5726 13.2639 18.4807 13.2639H16.0862C16.0432 13.2641 16.0019 13.2477 15.9708 13.218L15.9687 13.2158L15.9666 13.2126C15.9377 13.1838 15.9196 13.1421 15.9196 13.0983V9.37518C15.9199 9.33245 15.9367 9.2915 15.9666 9.2609L15.9687 9.2577L15.9698 9.25556H15.9708C16.0017 9.22548 16.0431 9.20862 16.0862 9.20857H18.4807C18.5026 9.20871 18.5242 9.21315 18.5444 9.22166C18.5646 9.23016 18.5828 9.24255 18.5982 9.25812C18.6136 9.27369 18.6257 9.29214 18.634 9.31241C18.6422 9.33267 18.6464 9.35437 18.6463 9.37625Z"/>
</mask>
<path fill-rule="evenodd" clip-rule="evenodd" d="M3.20515 0.0454102C1.74613 0.0454102 0.563354 1.22818 0.563354 2.68721V21.8403C0.563354 23.2993 1.74613 24.4821 3.20515 24.4821H22.3582C23.8172 24.4821 25 23.2993 25 21.8403V2.68721C25 1.22818 23.8172 0.0454102 22.3582 0.0454102H3.20515ZM21.326 11.0563C21.326 7.2327 17.4928 4.12259 12.7817 4.12259C8.07167 4.12259 4.23743 7.2327 4.23743 11.0563C4.23743 14.4836 7.27705 17.3555 11.3836 17.897C11.6613 17.9568 12.0394 18.0807 12.1355 18.3189C12.222 18.5346 12.1921 18.8732 12.1633 19.0911L12.0415 19.8227L12.0383 19.8419C11.9978 20.0726 11.8952 20.6568 12.7817 20.283C13.6938 19.8985 17.7021 17.3854 19.4943 15.322C20.7332 13.9645 21.326 12.5868 21.326 11.0563ZM7.97234 12.3315H9.60109C9.62297 12.3316 9.64461 12.3361 9.66477 12.3446C9.68493 12.3531 9.70322 12.3655 9.71859 12.381C9.73397 12.3966 9.74612 12.4151 9.75436 12.4353C9.76261 12.4556 9.76678 12.4773 9.76664 12.4992V13.0973C9.76664 13.1891 9.69294 13.2639 9.60109 13.2639H7.20656C7.16359 13.2642 7.12219 13.2478 7.09121 13.218L7.08908 13.2158L7.08694 13.2137V13.2126C7.0581 13.1838 7.03995 13.1421 7.03995 13.0983V9.37518C7.03995 9.3533 7.04426 9.33163 7.05263 9.31142C7.061 9.2912 7.07328 9.27284 7.08875 9.25737C7.10422 9.24189 7.12259 9.22962 7.1428 9.22125C7.16302 9.21287 7.18468 9.20857 7.20656 9.20857H7.8068C7.8508 9.20885 7.8929 9.22653 7.92392 9.25774C7.95494 9.28896 7.97234 9.33117 7.97234 9.37518V12.3315ZM10.3281 9.25737C10.3593 9.22612 10.4017 9.20857 10.4459 9.20857H11.0461C11.0901 9.20885 11.1322 9.22653 11.1633 9.25774C11.1943 9.28896 11.2117 9.33117 11.2117 9.37518V13.0983C11.2117 13.1891 11.138 13.2639 11.0461 13.2639H10.4459C10.3541 13.2639 10.2793 13.1902 10.2793 13.0983V9.37518C10.2793 9.33099 10.2968 9.28861 10.3281 9.25737ZM14.4539 9.25737C14.4852 9.22612 14.5275 9.20857 14.5717 9.20857H15.1709C15.2151 9.20857 15.2575 9.22612 15.2887 9.25737C15.3199 9.28861 15.3375 9.33099 15.3375 9.37518V13.0994C15.3375 13.1902 15.2627 13.265 15.1698 13.265H14.5717C14.5573 13.2647 14.5429 13.2625 14.529 13.2585H14.5258C14.5222 13.2576 14.5186 13.2565 14.5151 13.2553L14.5098 13.2532L14.5023 13.25C14.4994 13.2488 14.4965 13.2473 14.4938 13.2457L14.4895 13.2436L14.4788 13.2372L14.4777 13.2361C14.4615 13.2252 14.4474 13.2114 14.4361 13.1955L12.7272 10.8886V13.0994C12.7272 13.1902 12.6525 13.265 12.5595 13.265H11.9614C11.8696 13.265 11.7948 13.1913 11.7948 13.0994V9.37625C11.7951 9.33224 11.8128 9.29014 11.844 9.25912C11.8752 9.22811 11.9174 9.2107 11.9614 9.2107H12.5745L12.5766 9.21177H12.5809L12.5841 9.21284H12.5905L12.6001 9.21497L12.6033 9.21604H12.6055C12.6091 9.21691 12.6127 9.21798 12.6162 9.21925L12.6204 9.22138L12.6311 9.22565L12.6343 9.22779H12.6364L12.645 9.23313C12.6469 9.23402 12.6487 9.23509 12.6503 9.23633L12.6535 9.23847L12.6589 9.24274H12.6599C12.6641 9.24564 12.668 9.24885 12.6717 9.25235L12.6749 9.25556C12.6786 9.25894 12.6822 9.2625 12.6856 9.26624V9.26731C12.6905 9.27237 12.6951 9.27772 12.6995 9.28333L14.4051 11.586V9.37518C14.4051 9.33099 14.4227 9.28861 14.4539 9.25737ZM18.6463 9.37625V9.97435H18.6452C18.6452 10.0662 18.5715 10.141 18.4797 10.141H16.8509V10.77H18.4797C18.5015 10.7702 18.5232 10.7746 18.5433 10.7831C18.5635 10.7916 18.5818 10.804 18.5972 10.8196C18.6125 10.8352 18.6247 10.8536 18.6329 10.8739C18.6412 10.8941 18.6453 10.9158 18.6452 10.9377V11.5358C18.6452 11.6277 18.5715 11.7024 18.4797 11.7024H16.8509V12.3315H18.4807C18.5026 12.3316 18.5242 12.3361 18.5444 12.3446C18.5646 12.3531 18.5828 12.3655 18.5982 12.381C18.6136 12.3966 18.6257 12.4151 18.634 12.4353C18.6422 12.4556 18.6464 12.4773 18.6463 12.4992V13.0973C18.6463 13.1891 18.5726 13.2639 18.4807 13.2639H16.0862C16.0432 13.2641 16.0019 13.2477 15.9708 13.218L15.9687 13.2158L15.9666 13.2126C15.9377 13.1838 15.9196 13.1421 15.9196 13.0983V9.37518C15.9199 9.33245 15.9367 9.2915 15.9666 9.2609L15.9687 9.2577L15.9698 9.25556H15.9708C16.0017 9.22548 16.0431 9.20862 16.0862 9.20857H18.4807C18.5026 9.20871 18.5242 9.21315 18.5444 9.22166C18.5646 9.23016 18.5828 9.24255 18.5982 9.25812C18.6136 9.27369 18.6257 9.29214 18.634 9.31241C18.6422 9.33267 18.6464 9.35437 18.6463 9.37625Z" fill="white" stroke="white" stroke-width="4.07277" mask="url(#path-1-inside-1_48_605)"/>
</svg>
