<svg width="24" height="32" viewBox="0 0 24 32" fill="none" xmlns="http://www.w3.org/2000/svg">
<path d="M12.0634 0.418701C9.01336 0.418701 6.0883 1.6598 3.93163 3.86898C1.77496 6.07816 0.563354 9.07445 0.563354 12.1987V13.0572C1.02894 19.5115 6.25904 24.702 12.0634 31.4187C18.1237 24.4079 23.5634 19.0982 23.5634 12.1987C23.5634 9.07445 22.3518 6.07816 20.1951 3.86898C18.0384 1.6598 15.1133 0.418701 12.0634 0.418701ZM12.0634 6.53921C13.158 6.53921 14.228 6.87181 15.138 7.4949C16.048 8.118 16.7571 9.0036 17.1757 10.0397C17.5942 11.0757 17.7033 12.2156 17.4892 13.3152C17.2751 14.4148 16.7474 15.4247 15.9728 16.2169C15.1983 17.0092 14.2117 17.5484 13.138 17.7662C12.0642 17.9839 10.9515 17.8706 9.94069 17.4404C8.92985 17.0102 8.0663 16.2826 7.45929 15.3495C6.85228 14.4165 6.52909 13.32 6.53063 12.1987C6.53269 10.697 7.1165 9.25749 8.15387 8.19636C9.19123 7.13522 10.5973 6.53921 12.0634 6.53921Z" fill="white"/>
</svg>
