<svg width="25" height="25" viewBox="0 0 25 25" fill="none" xmlns="http://www.w3.org/2000/svg">
<path d="M20.9272 17.4254C20.9272 17.3088 20.9166 17.2239 20.8954 17.1709C20.8742 17.1179 20.7787 17.0304 20.609 16.9084C20.4393 16.7864 20.2246 16.6538 19.9647 16.5106C19.7049 16.3675 19.453 16.2269 19.209 16.0891C18.9651 15.9512 18.7238 15.8186 18.4852 15.6913C18.2465 15.564 18.0954 15.4845 18.0317 15.4527C17.9787 15.4209 17.8779 15.3519 17.7295 15.2459C17.581 15.1398 17.4484 15.0603 17.3317 15.0072C17.2151 14.9542 17.1037 14.9277 16.9976 14.9277C16.8385 14.9277 16.645 15.0364 16.4169 15.2538C16.1889 15.4712 15.9794 15.7099 15.7885 15.9697C15.5976 16.2296 15.3934 16.4682 15.176 16.6857C14.9586 16.9031 14.7809 17.0118 14.6431 17.0118C14.5688 17.0118 14.4813 16.9932 14.3806 16.9561C14.2798 16.919 14.1976 16.8845 14.134 16.8527C14.0703 16.8209 13.9802 16.7705 13.8635 16.7016C13.7468 16.6326 13.6726 16.5875 13.6408 16.5663C12.5908 15.983 11.6892 15.3121 10.9362 14.5538C10.1832 13.7955 9.50967 12.8913 8.91572 11.8413C8.89451 11.8095 8.84943 11.7352 8.78049 11.6185C8.71155 11.5019 8.66117 11.4117 8.62936 11.3481C8.59754 11.2845 8.56307 11.2023 8.52595 11.1015C8.48882 11.0007 8.47026 10.9132 8.47026 10.839C8.47026 10.7011 8.57898 10.5235 8.7964 10.306C9.01383 10.0886 9.25247 9.88444 9.51232 9.69352C9.77217 9.50261 10.0108 9.29314 10.2282 9.06511C10.4457 8.83708 10.5544 8.64351 10.5544 8.48442C10.5544 8.37836 10.5279 8.26699 10.4748 8.15033C10.4218 8.03366 10.3423 7.90108 10.2362 7.75259C10.1301 7.60411 10.0612 7.50335 10.0294 7.45032C9.99755 7.38668 9.91801 7.23554 9.79073 6.9969C9.66346 6.75826 9.53088 6.51697 9.393 6.27303C9.25512 6.02909 9.11459 5.77719 8.97141 5.51734C8.82822 5.25749 8.69564 5.04271 8.57367 4.87302C8.4517 4.70332 8.3642 4.60786 8.31117 4.58665C8.25814 4.56544 8.17329 4.55483 8.05662 4.55483C7.54753 4.55483 7.01191 4.6715 6.44979 4.90483C5.9619 5.12756 5.53765 5.62871 5.17704 6.40826C4.81643 7.18781 4.63613 7.87987 4.63613 8.48442C4.63613 8.65412 4.64939 8.83442 4.6759 9.02534C4.70242 9.21625 4.72893 9.37799 4.75545 9.51057C4.78196 9.64315 4.82969 9.81815 4.89863 10.0356C4.96757 10.253 5.0206 10.4094 5.05772 10.5049C5.09485 10.6004 5.16113 10.7754 5.25659 11.0299C5.35205 11.2845 5.41038 11.4435 5.43159 11.5072C6.06796 13.2466 7.21608 14.9462 8.87595 16.6061C10.5358 18.266 12.2355 19.4141 13.9749 20.0505C14.0385 20.0717 14.1976 20.13 14.4521 20.2255C14.7067 20.3209 14.8817 20.3872 14.9772 20.4243C15.0726 20.4615 15.2291 20.5145 15.4465 20.5834C15.6639 20.6524 15.8389 20.7001 15.9715 20.7266C16.1041 20.7531 16.2658 20.7796 16.4567 20.8062C16.6476 20.8327 16.8279 20.8459 16.9976 20.8459C17.6022 20.8459 18.2942 20.6656 19.0738 20.305C19.8533 19.9444 20.3545 19.5202 20.5772 19.0323C20.8106 18.4701 20.9272 17.9345 20.9272 17.4254ZM25 5.06393V20.3368C25 21.599 24.5519 22.6781 23.6557 23.5744C22.7594 24.4706 21.6803 24.9187 20.4181 24.9187H5.14523C3.88309 24.9187 2.80391 24.4706 1.90769 23.5744C1.01147 22.6781 0.563354 21.599 0.563354 20.3368V5.06393C0.563354 3.80179 1.01147 2.72261 1.90769 1.82639C2.80391 0.930167 3.88309 0.482056 5.14523 0.482056H20.4181C21.6803 0.482056 22.7594 0.930167 23.6557 1.82639C24.5519 2.72261 25 3.80179 25 5.06393Z" fill="white"/>
</svg>
