<svg width="52" height="80" viewBox="0 0 52 80" fill="none" xmlns="http://www.w3.org/2000/svg">
<g filter="url(#filter0_bddd_11_711)">
<mask id="path-1-inside-1_11_711" fill="white">
<path fill-rule="evenodd" clip-rule="evenodd" d="M14.7043 34.9897C14.1185 35.5754 14.1185 36.5252 14.7043 37.111C15.2901 37.6968 16.2398 37.6968 16.8256 37.111L26.018 27.9186L35.2104 37.111C35.7962 37.6968 36.7459 37.6968 37.3317 37.111C37.9175 36.5252 37.9175 35.5754 37.3317 34.9897L28.1393 25.7973L37.3317 16.6049C37.9175 16.0191 37.9175 15.0694 37.3317 14.4836C36.7459 13.8978 35.7962 13.8978 35.2104 14.4836L26.018 23.6759L16.8256 14.4836C16.2399 13.8978 15.2901 13.8978 14.7043 14.4836C14.1185 15.0694 14.1185 16.0191 14.7043 16.6049L23.8967 25.7973L14.7043 34.9897Z"/>
</mask>
<path fill-rule="evenodd" clip-rule="evenodd" d="M14.7043 34.9897C14.1185 35.5754 14.1185 36.5252 14.7043 37.111C15.2901 37.6968 16.2398 37.6968 16.8256 37.111L26.018 27.9186L35.2104 37.111C35.7962 37.6968 36.7459 37.6968 37.3317 37.111C37.9175 36.5252 37.9175 35.5754 37.3317 34.9897L28.1393 25.7973L37.3317 16.6049C37.9175 16.0191 37.9175 15.0694 37.3317 14.4836C36.7459 13.8978 35.7962 13.8978 35.2104 14.4836L26.018 23.6759L16.8256 14.4836C16.2399 13.8978 15.2901 13.8978 14.7043 14.4836C14.1185 15.0694 14.1185 16.0191 14.7043 16.6049L23.8967 25.7973L14.7043 34.9897Z" fill="white"/>
<path d="M14.7042 37.1109L15.4113 36.4038L15.4113 36.4038L14.7042 37.1109ZM14.7042 34.9896L15.4113 35.6967H15.4113L14.7042 34.9896ZM16.8256 37.1109L16.1184 36.4038H16.1184L16.8256 37.1109ZM26.018 27.9185L26.7251 27.2114L26.018 26.5043L25.3109 27.2114L26.018 27.9185ZM28.1393 25.7972L27.4322 25.0901L26.7251 25.7972L27.4322 26.5043L28.1393 25.7972ZM37.3316 16.6048L36.6245 15.8977V15.8977L37.3316 16.6048ZM37.3316 14.4835L36.6245 15.1906L36.6245 15.1906L37.3316 14.4835ZM35.2103 14.4835L35.9174 15.1906V15.1906L35.2103 14.4835ZM26.018 23.6759L25.3109 24.383L26.018 25.0901L26.7251 24.383L26.018 23.6759ZM16.8256 14.4835L16.1185 15.1906H16.1185L16.8256 14.4835ZM14.7043 14.4835L15.4114 15.1906L14.7043 14.4835ZM14.7043 16.6048L15.4114 15.8977V15.8977L14.7043 16.6048ZM23.8966 25.7972L24.6037 26.5043L25.3109 25.7972L24.6037 25.0901L23.8966 25.7972ZM15.4113 36.4038C15.2161 36.2086 15.2161 35.892 15.4113 35.6967L13.9971 34.2825C13.0208 35.2588 13.0208 36.8417 13.9971 37.8181L15.4113 36.4038ZM16.1184 36.4038C15.9232 36.5991 15.6066 36.5991 15.4113 36.4038L13.9971 37.8181C14.9734 38.7944 16.5563 38.7944 17.5327 37.8181L16.1184 36.4038ZM25.3109 27.2114L16.1184 36.4038L17.5327 37.8181L26.7251 28.6256L25.3109 27.2114ZM25.3109 28.6256L34.5033 37.8181L35.9175 36.4038L26.7251 27.2114L25.3109 28.6256ZM34.5033 37.8181C35.4796 38.7944 37.0625 38.7944 38.0388 37.8181L36.6246 36.4038C36.4293 36.5991 36.1127 36.5991 35.9175 36.4038L34.5033 37.8181ZM38.0388 37.8181C39.0151 36.8417 39.0151 35.2588 38.0388 34.2825L36.6246 35.6967C36.8198 35.892 36.8198 36.2086 36.6246 36.4038L38.0388 37.8181ZM38.0388 34.2825L28.8464 25.0901L27.4322 26.5043L36.6246 35.6967L38.0388 34.2825ZM36.6245 15.8977L27.4322 25.0901L28.8464 26.5043L38.0388 17.312L36.6245 15.8977ZM36.6245 15.1906C36.8198 15.3859 36.8198 15.7025 36.6245 15.8977L38.0388 17.312C39.0151 16.3356 39.0151 14.7527 38.0388 13.7764L36.6245 15.1906ZM35.9174 15.1906C36.1127 14.9954 36.4293 14.9954 36.6245 15.1906L38.0388 13.7764C37.0624 12.8001 35.4795 12.8001 34.5032 13.7764L35.9174 15.1906ZM26.7251 24.383L35.9174 15.1906L34.5032 13.7764L25.3109 22.9688L26.7251 24.383ZM26.7251 22.9688L17.5327 13.7764L16.1185 15.1906L25.3109 24.383L26.7251 22.9688ZM17.5327 13.7764C16.5564 12.8001 14.9735 12.8001 13.9972 13.7764L15.4114 15.1906C15.6066 14.9954 15.9232 14.9954 16.1185 15.1906L17.5327 13.7764ZM13.9972 13.7764C13.0209 14.7527 13.0209 16.3356 13.9972 17.312L15.4114 15.8977C15.2161 15.7025 15.2161 15.3859 15.4114 15.1906L13.9972 13.7764ZM13.9972 17.312L23.1895 26.5043L24.6037 25.0901L15.4114 15.8977L13.9972 17.312ZM15.4113 35.6967L24.6037 26.5043L23.1895 25.0901L13.9971 34.2825L15.4113 35.6967Z" fill="white" mask="url(#path-1-inside-1_11_711)"/>
</g>
<defs>
<filter id="filter0_bddd_11_711" x="-23.7351" y="-23.9558" width="103.506" height="103.506" filterUnits="userSpaceOnUse" color-interpolation-filters="sRGB">
<feFlood flood-opacity="0" result="BackgroundImageFix"/>
<feGaussianBlur in="BackgroundImageFix" stdDeviation="15"/>
<feComposite in2="SourceAlpha" operator="in" result="effect1_backgroundBlur_11_711"/>
<feColorMatrix in="SourceAlpha" type="matrix" values="0 0 0 0 0 0 0 0 0 0 0 0 0 0 0 0 0 0 127 0" result="hardAlpha"/>
<feOffset dx="2" dy="4"/>
<feGaussianBlur stdDeviation="4"/>
<feComposite in2="hardAlpha" operator="out"/>
<feColorMatrix type="matrix" values="0 0 0 0 0 0 0 0 0 0 0 0 0 0 0 0 0 0 0.02 0"/>
<feBlend mode="normal" in2="effect1_backgroundBlur_11_711" result="effect2_dropShadow_11_711"/>
<feColorMatrix in="SourceAlpha" type="matrix" values="0 0 0 0 0 0 0 0 0 0 0 0 0 0 0 0 0 0 127 0" result="hardAlpha"/>
<feOffset dx="2" dy="2"/>
<feGaussianBlur stdDeviation="20"/>
<feComposite in2="hardAlpha" operator="out"/>
<feColorMatrix type="matrix" values="0 0 0 0 0 0 0 0 0 0 0 0 0 0 0 0 0 0 0.1 0"/>
<feBlend mode="normal" in2="effect2_dropShadow_11_711" result="effect3_dropShadow_11_711"/>
<feColorMatrix in="SourceAlpha" type="matrix" values="0 0 0 0 0 0 0 0 0 0 0 0 0 0 0 0 0 0 127 0" result="hardAlpha"/>
<feOffset dy="4"/>
<feGaussianBlur stdDeviation="5"/>
<feColorMatrix type="matrix" values="0 0 0 0 0.996078 0 0 0 0 0.635294 0 0 0 0 0.176471 0 0 0 0.02 0"/>
<feBlend mode="normal" in2="effect3_dropShadow_11_711" result="effect4_dropShadow_11_711"/>
<feBlend mode="normal" in="SourceGraphic" in2="effect4_dropShadow_11_711" result="shape"/>
</filter>
</defs>
</svg>
